<svg width="22" height="24" viewBox="0 0 22 24" fill="none" xmlns="http://www.w3.org/2000/svg">
<path id="Vector" d="M14.4305 11.4C14.3765 12.033 13.8485 12.527 13.2065 12.527C12.5285 12.527 11.9775 11.977 11.9775 11.298C11.9775 10.619 12.5275 10.069 13.2055 10.069C13.8885 10.098 14.4305 10.659 14.4305 11.346C14.4305 11.365 14.4305 11.383 14.4295 11.402V11.399L14.4305 11.4ZM8.82651 10.07C8.13851 10.131 7.60351 10.704 7.60351 11.402C7.60351 12.1 8.13851 12.673 8.82151 12.734H8.82651C9.50951 12.705 10.0515 12.144 10.0515 11.457C10.0515 11.438 10.0515 11.42 10.0505 11.401V11.404C10.0515 11.384 10.0525 11.361 10.0525 11.337C10.0525 10.652 9.51151 10.094 8.83351 10.068H8.83151L8.82651 10.07ZM21.5005 2.472V24C18.4775 21.328 19.4435 22.213 15.9325 18.948L16.5685 21.168H2.95951C1.60051 21.164 0.499512 20.062 0.499512 18.702C0.499512 18.7 0.499512 18.698 0.499512 18.696V2.472C0.499512 2.47 0.499512 2.468 0.499512 2.466C0.499512 1.106 1.60051 0.004 2.95851 0H19.0395C20.3985 0.004 21.4995 1.106 21.4995 2.466L21.5005 2.472ZM18.0805 13.848C18.0385 11.289 17.4045 8.888 16.3105 6.762L16.3525 6.852C15.4285 6.121 14.2645 5.657 12.9945 5.593L12.9805 5.592L12.8125 5.784C13.9625 6.096 14.9625 6.621 15.8145 7.319L15.8005 7.308C14.4015 6.539 12.7345 6.086 10.9615 6.086C9.46851 6.086 8.05051 6.407 6.77251 6.984L6.83651 6.958C6.39251 7.162 6.12851 7.308 6.12851 7.308C7.01251 6.586 8.07051 6.042 9.22851 5.748L9.28451 5.736L9.16451 5.592C7.88051 5.657 6.71651 6.121 5.78051 6.861L5.79251 6.852C4.74051 8.888 4.10651 11.289 4.06451 13.834V13.848C4.86351 14.959 6.15251 15.674 7.60751 15.674C7.64851 15.674 7.68951 15.673 7.73051 15.672H7.72451C7.72451 15.672 8.16851 15.132 8.52851 14.676C7.66251 14.453 6.93651 13.949 6.43551 13.27L6.42851 13.26C6.60451 13.384 6.89651 13.544 6.91851 13.56C8.12751 14.232 9.57051 14.627 11.1065 14.627C12.2975 14.627 13.4325 14.389 14.4665 13.959L14.4085 13.98C14.9365 13.778 15.3905 13.54 15.8125 13.257L15.7875 13.273C15.2615 13.976 14.5105 14.485 13.6435 14.696L13.6175 14.701C13.9775 15.157 14.4095 15.673 14.4095 15.673C14.4425 15.674 14.4815 15.674 14.5205 15.674C15.9815 15.674 17.2755 14.96 18.0725 13.861L18.0805 13.848Z" fill="#FCFCFC"/>
</svg>
