<svg width="472" height="349" viewBox="0 0 472 349" fill="none" xmlns="http://www.w3.org/2000/svg">
<g clip-path="url(#clip0_550_3184)">
<path d="M236 250.16C183.839 250.16 134.776 242.393 97.8486 228.291C60.4294 214.001 39.8219 194.806 39.8219 174.24C39.8219 153.673 60.4295 134.479 97.8486 120.188C134.776 106.087 183.839 98.3201 236 98.3201C288.162 98.3201 337.224 106.087 374.152 120.188C411.571 134.479 432.178 153.674 432.178 174.24C432.178 194.805 411.571 214.001 374.152 228.291C337.224 242.393 288.162 250.16 236 250.16ZM236 101.559C184.224 101.559 135.571 109.25 99.0036 123.214C62.9277 136.991 43.0601 155.113 43.0601 174.24C43.0601 193.367 62.9277 211.488 99.0036 225.265C135.571 239.23 184.224 246.921 236 246.921C287.777 246.921 336.429 239.23 372.996 225.265C409.072 211.488 428.94 193.367 428.94 174.24C428.94 155.112 409.072 136.991 372.996 123.214C336.429 109.25 287.776 101.559 236 101.559Z" fill="#61DAFB"/>
<path d="M317.054 348.48C300.844 348.48 280.637 339.109 258.275 320.932C227.601 295.997 196.345 257.382 170.264 212.2C144.183 167.019 126.377 120.637 120.124 81.5997C113.787 42.0423 120.104 14.5945 137.911 4.31181C155.718 -5.97043 182.643 2.28162 213.725 27.5482C244.399 52.4834 275.655 91.0983 301.736 136.28C327.817 181.461 345.623 227.843 351.877 266.881C358.213 306.438 351.896 333.885 334.089 344.169C329.093 347.053 323.376 348.48 317.054 348.48ZM155.033 3.21389C149.253 3.21389 144.053 4.50436 139.53 7.11653C122.968 16.6804 117.212 42.95 123.321 81.0873C129.513 119.744 147.181 165.732 173.068 210.581C198.957 255.428 229.942 293.726 260.317 318.418C290.284 342.779 315.909 350.929 332.47 341.363C349.032 331.799 354.788 305.53 348.679 267.393C342.487 228.736 324.819 182.748 298.932 137.899C273.043 93.0514 242.058 54.754 211.682 30.0619C189.901 12.3551 170.413 3.21389 155.033 3.21389Z" fill="#61DAFB"/>
<path d="M154.946 348.48C148.622 348.48 142.908 347.054 137.911 344.169C120.104 333.885 113.787 306.438 120.124 266.881C126.377 227.843 144.183 181.461 170.264 136.28C196.345 91.0983 227.601 52.4834 258.275 27.5482C289.357 2.2812 316.283 -5.97164 334.089 4.31179C351.896 14.5944 358.213 42.0422 351.877 81.5996C345.623 120.637 327.817 167.019 301.736 212.2C275.655 257.382 244.399 295.997 213.725 320.932C191.365 339.108 171.156 348.48 154.946 348.48ZM316.967 3.21386C301.586 3.21386 282.101 12.3539 260.317 30.0619C229.942 54.754 198.957 93.0514 173.068 137.899C147.181 182.748 129.513 228.736 123.321 267.393C117.212 305.53 122.968 331.799 139.53 341.363C144.053 343.975 149.255 345.266 155.033 345.266C170.414 345.268 189.899 336.126 211.682 318.418C242.058 293.726 273.043 255.428 298.932 210.581C324.819 165.732 342.487 119.744 348.679 81.0872C354.788 42.95 349.032 16.6804 332.47 7.1165C327.947 4.50512 322.745 3.21386 316.967 3.21386Z" fill="#61DAFB"/>
<path d="M236 210.506C256.025 210.506 272.259 194.269 272.259 174.24C272.259 154.211 256.025 137.974 236 137.974C215.975 137.974 199.741 154.211 199.741 174.24C199.741 194.269 215.975 210.506 236 210.506Z" fill="#61DAFB"/>
<path d="M457.221 274.317C456.537 273.165 453.58 274.399 453.037 273.353C452.495 272.31 455.242 270.722 456.812 267.094C457.095 266.44 458.879 262.316 457.558 261.044C455.055 258.632 443.602 268.584 439.594 265.328C438.714 264.613 438.1 263.186 435.437 260.87C434.378 259.948 433.738 259.532 433.118 259.687C432.238 259.906 432.169 261.084 431.226 263.398C429.811 266.87 428.975 266.66 428.151 269.43C427.539 271.486 427.679 272.681 426.959 272.914C425.941 273.244 425.003 271.063 423.712 271.258C422.395 271.457 421.598 273.997 421.347 275.898C420.875 279.465 422.185 281.82 422.911 284.295C423.7 286.985 424.168 291.076 422.346 296.868L404.311 347.69C408.293 337.261 419.821 308.674 424.665 298.051C426.064 294.984 427.608 291.873 430.778 290.646C433.831 289.464 438.023 290.169 443.367 288.882C443.991 288.731 445.723 288.29 445.941 287.271C446.121 286.429 445.103 285.959 445.259 285.17C445.469 284.112 447.473 284.099 449.934 282.878C451.671 282.017 452.752 280.993 453.682 280.112C453.963 279.847 458.131 275.852 457.221 274.317Z" fill="#595959"/>
<path d="M386.268 301.072C385.505 301.075 385.257 302.883 384.587 302.848C383.919 302.813 383.933 301.006 382.605 299.189C382.366 298.861 380.857 296.796 379.852 297.077C377.946 297.61 379.525 306.104 376.77 307.132C376.166 307.357 375.288 307.247 373.384 307.886C372.626 308.14 372.237 308.334 372.134 308.683C371.988 309.178 372.546 309.552 373.409 310.683C374.705 312.379 374.36 312.729 375.482 313.933C376.314 314.826 376.941 315.102 376.848 315.523C376.716 316.118 375.375 315.949 375.098 316.639C374.816 317.343 375.832 318.467 376.692 319.139C378.307 320.4 379.84 320.436 381.264 320.794C382.812 321.183 384.955 322.133 387.271 324.699L407.006 348.216C403.038 343.252 392.336 329.345 388.521 323.902C387.419 322.33 386.338 320.675 386.651 318.764C386.951 316.925 388.507 315.071 389.417 312.075C389.524 311.726 389.807 310.748 389.37 310.347C389.009 310.016 388.484 310.38 388.142 310.076C387.683 309.667 388.255 308.68 388.366 307.119C388.444 306.018 388.254 305.192 388.09 304.481C388.041 304.267 387.283 301.068 386.268 301.072Z" fill="#595959"/>
<path d="M401.487 304.489L401.027 300.386L401.237 300.074C402.209 298.636 402.704 297.231 402.71 295.897C402.711 295.685 402.701 295.473 402.692 295.257C402.652 294.401 402.602 293.337 403.157 292.097C403.468 291.405 404.342 289.804 405.655 290.002C406.009 290.052 406.276 290.214 406.479 290.405C406.509 290.357 406.54 290.31 406.573 290.258C406.982 289.634 407.306 289.366 407.618 289.109C407.857 288.911 408.105 288.706 408.493 288.223C408.664 288.011 408.796 287.825 408.908 287.668C409.248 287.195 409.692 286.63 410.474 286.64C411.31 286.679 411.748 287.371 412.039 287.829C412.557 288.645 412.791 289.234 412.947 289.624C413.003 289.767 413.068 289.927 413.1 289.977C413.37 290.373 415.56 290.002 416.385 289.868C418.238 289.559 419.842 289.291 420.503 290.46C420.976 291.296 420.625 292.402 419.426 293.835C419.053 294.28 418.655 294.619 418.303 294.885C418.595 295.059 418.857 295.327 418.963 295.747C419.212 296.742 418.357 297.738 416.423 298.713C415.942 298.957 415.295 299.282 414.389 299.438C413.962 299.512 413.578 299.53 413.249 299.539C413.242 299.73 413.197 299.936 413.082 300.148C412.742 300.772 412.035 301.069 410.969 300.998C409.796 300.936 408.83 300.713 407.978 300.516C407.234 300.346 406.593 300.201 406.09 300.235C405.157 300.31 404.438 301.057 403.594 302.026L401.487 304.489Z" fill="#595959"/>
<path d="M403.619 280.056L399.767 281.541L399.413 281.417C397.775 280.842 396.291 280.719 395 281.051C394.794 281.104 394.592 281.168 394.385 281.232C393.568 281.487 392.551 281.805 391.211 281.583C390.463 281.458 388.693 281.019 388.551 279.697C388.51 279.343 388.599 279.043 388.731 278.798C388.678 278.781 388.624 278.764 388.566 278.745C387.859 278.508 387.518 278.262 387.189 278.026C386.937 277.844 386.677 277.656 386.111 277.403C385.862 277.292 385.649 277.211 385.469 277.142C384.925 276.934 384.266 276.648 384.077 275.888C383.903 275.069 384.461 274.47 384.83 274.073C385.488 273.365 385.998 272.988 386.336 272.739C386.46 272.648 386.598 272.545 386.638 272.501C386.953 272.14 386.039 270.115 385.699 269.351C384.93 267.636 384.265 266.152 385.228 265.217C385.917 264.546 387.075 264.606 388.765 265.402C389.291 265.651 389.719 265.949 390.065 266.223C390.16 265.896 390.352 265.575 390.732 265.366C391.63 264.872 392.811 265.446 394.245 267.071C394.602 267.474 395.08 268.017 395.462 268.854C395.641 269.249 395.756 269.616 395.849 269.932C396.034 269.89 396.245 269.881 396.479 269.939C397.169 270.11 397.636 270.719 397.837 271.768C398.076 272.918 398.104 273.909 398.13 274.783C398.154 275.546 398.177 276.203 398.337 276.681C398.647 277.565 399.552 278.071 400.703 278.642L403.619 280.056Z" fill="#595959"/>
<path d="M401.487 267.966L401.027 263.862L401.237 263.551C402.209 262.113 402.704 260.708 402.71 259.374C402.711 259.162 402.701 258.95 402.692 258.734C402.652 257.878 402.602 256.814 403.157 255.573C403.468 254.882 404.342 253.281 405.655 253.479C406.009 253.529 406.276 253.691 406.479 253.881C406.509 253.834 406.54 253.786 406.573 253.735C406.982 253.11 407.306 252.843 407.618 252.585C407.857 252.387 408.105 252.183 408.493 251.7C408.664 251.488 408.796 251.301 408.908 251.145C409.248 250.671 409.692 250.106 410.474 250.116C411.31 250.156 411.748 250.848 412.039 251.305C412.557 252.122 412.791 252.71 412.947 253.101C413.003 253.243 413.068 253.404 413.1 253.453C413.37 253.85 415.56 253.479 416.385 253.344C418.238 253.035 419.842 252.768 420.503 253.937C420.976 254.773 420.625 255.879 419.426 257.311C419.053 257.757 418.655 258.096 418.303 258.361C418.595 258.536 418.857 258.803 418.963 259.223C419.212 260.218 418.357 261.215 416.423 262.19C415.942 262.434 415.295 262.758 414.389 262.915C413.962 262.988 413.578 263.006 413.249 263.016C413.242 263.206 413.197 263.412 413.082 263.624C412.742 264.249 412.035 264.546 410.969 264.474C409.796 264.413 408.83 264.189 407.978 263.993C407.234 263.823 406.593 263.678 406.09 263.712C405.157 263.787 404.438 264.534 403.594 265.503L401.487 267.966Z" fill="#595959"/>
<path d="M405.685 347.623L404.825 347.084L403.823 347.199C403.807 347.106 403.752 346.892 403.67 346.557C403.221 344.722 401.853 339.138 400.712 330.344C399.916 324.205 399.465 317.894 399.372 311.583C399.279 305.262 399.578 300.477 399.818 296.631C399.999 293.73 400.219 290.967 400.435 288.276C401.009 281.088 401.551 274.297 401.148 266.779C401.059 265.101 400.872 261.607 398.831 257.89C397.647 255.734 396.017 253.82 393.984 252.203L395.248 250.614C397.492 252.401 399.296 254.521 400.61 256.915C402.873 261.037 403.077 264.843 403.175 266.672C403.585 274.323 403.037 281.179 402.457 288.437C402.243 291.118 402.023 293.868 401.843 296.757C401.605 300.568 401.309 305.312 401.401 311.551C401.492 317.787 401.938 324.021 402.723 330.083C403.85 338.766 405.199 344.266 405.641 346.073C405.877 347.038 405.927 347.241 405.685 347.623Z" fill="#595959"/>
<path d="M390.264 255.427C390.181 255.427 390.096 255.425 390.011 255.419C388.284 255.326 386.684 254.291 385.256 252.346C384.586 251.43 384.243 250.386 383.56 248.303C383.454 247.982 382.939 246.353 382.626 244.112C382.421 242.648 382.446 242.036 382.737 241.495C383.058 240.892 383.579 240.472 384.166 240.189C384.14 239.995 384.161 239.795 384.245 239.591C384.591 238.744 385.51 238.855 386.007 238.909C386.259 238.941 386.573 238.982 386.912 238.964C387.445 238.939 387.731 238.78 388.165 238.542C388.58 238.314 389.096 238.031 389.862 237.875C391.371 237.559 392.636 237.987 393.053 238.128C395.247 238.859 396.329 240.565 397.581 242.541C397.831 242.937 398.688 244.38 399.253 246.357C399.661 247.784 399.604 248.418 399.481 248.89C399.231 249.859 398.642 250.414 397.145 251.638C395.582 252.92 394.798 253.562 394.124 253.953C392.556 254.858 391.571 255.427 390.264 255.427Z" fill="#595959"/>
<path d="M197.101 185.212C200.473 186.102 203.666 185.083 204.232 182.936C204.798 180.789 202.523 178.328 199.149 177.438C197.806 177.065 196.393 177.018 195.029 177.302L180.692 173.712L179.151 180.477L193.448 183.298C194.495 184.218 195.748 184.875 197.101 185.212Z" fill="#FFB6B6"/>
<path d="M118.302 152.275C118.302 152.275 115.39 157.864 119.426 160.621C123.462 163.378 157.072 176.156 157.072 176.156L190.45 183.422L191.655 175.308L161.266 165.598L135.924 148.551L118.302 152.275Z" fill="#1A1D2F"/>
<path d="M158.048 332.684L163.708 330.137L154.796 303.491L146.441 307.249L158.048 332.684Z" fill="#FFB6B6"/>
<path d="M182.84 335.173C183.293 336.119 182.989 337.207 182.161 337.603L171.05 342.921C171.05 342.921 167.854 339.048 162.49 339.29L165.191 345.725L159.459 348.468L155.317 338.025C155.317 338.025 151.196 333.35 153.057 329.061C154.919 324.772 152.524 326.391 152.524 326.391L150.783 319.534L159.931 316.407L164.694 326.2L173.562 333.939L181.184 334.034C181.863 334.043 182.514 334.49 182.84 335.173Z" fill="#1A1D2F"/>
<path d="M46.0316 318.927L51.0902 322.525L69.5712 301.363L62.1062 296.053L46.0316 318.927Z" fill="#FFB6B6"/>
<path d="M56.417 341.581C55.8298 342.45 54.7375 342.737 53.9773 342.223L43.7735 335.323C43.7735 335.323 45.4985 330.606 42.5789 326.1L38.3928 331.684L33.129 328.124L40.0436 319.27C40.0436 319.27 41.9937 313.35 46.6346 312.789C51.2755 312.227 48.6679 310.979 48.6679 310.979L53.7032 306.01L61.0249 312.324L54.985 321.385L52.7919 332.95L56.5626 339.576C56.8983 340.166 56.841 340.954 56.417 341.581Z" fill="#1A1D2F"/>
<path d="M135.59 116.048H109.009V152.56H135.59V116.048Z" fill="#2F2E41"/>
<path d="M129.621 136.917L115.188 132.626L112.458 140.038L112.068 185.295C112.068 185.295 132.741 180.613 137.422 188.416L138.982 174.371C138.982 174.371 144.053 167.348 139.762 158.375C135.472 149.402 131.427 145.356 131.427 145.356L128.061 143.55L129.621 136.917Z" fill="#830FDE"/>
<path d="M113.043 178.467L111.093 198.365L136.837 203.826C136.837 203.826 134.887 186.66 137.227 182.759L113.043 178.467Z" fill="#FFB6B6"/>
<path d="M138.397 203.436C138.397 203.436 122.014 191.342 107.972 196.024C107.972 196.024 91.3943 206.362 99.9757 224.309L86.9085 255.325L57.6536 296.29L65.845 306.044L104.461 265.859L116.944 248.693L148.539 315.797L158.291 311.115L146.199 259.617L138.982 223.919L138.397 203.436Z" fill="#1A1D2F"/>
<path d="M100.171 226.455L80.6675 220.212L99.3906 168.324L97.4403 140.624L113.959 135.963L123.185 176.907L100.171 226.455Z" fill="#1A1D2F"/>
<path d="M130.349 146.434L127.4 143.485L128.715 140.767C128.715 140.767 137.227 149.597 138.787 151.938C140.348 154.278 154.918 213.072 154.918 213.072L132.936 222.163L137.227 175.999L138.816 165.615C139.051 164.08 138.788 162.51 138.066 161.135L130.349 146.434Z" fill="#1A1D2F"/>
<path d="M123.174 133.227C130.318 133.227 136.109 127.435 136.109 120.29C136.109 113.145 130.318 107.353 123.174 107.353C116.031 107.353 110.24 113.145 110.24 120.29C110.24 127.435 116.031 133.227 123.174 133.227Z" fill="#FFB6B6"/>
<path d="M131.219 115.002C126.781 112.042 118.838 123.897 116.41 116.61C116.031 115.473 115.14 120.5 114.814 122.259C114.4 124.493 115.448 126.277 114.814 126.677C114.098 127.128 112.345 125.112 111.975 125.415C111.613 125.71 112.777 128.053 114.814 130.779C117.519 134.396 119.214 135.276 121.439 137.72C123.511 139.996 127.344 144.206 126.802 147.817C125.784 154.61 109.202 159.859 104.088 154.759C102.864 153.538 102.624 150.773 102.195 145.293C101.557 137.138 102.039 131.018 102.195 129.201C102.847 121.636 103.172 117.853 104.719 114.686C105.707 112.664 109.034 105.855 116.392 103.643C124.295 101.266 133.702 105.141 136.266 110.9C137.008 112.564 136.287 112.387 137.213 117.842C138.308 124.298 139.017 128.172 141.945 130.463C144.634 132.568 146.71 131.391 147.624 132.987C149.993 137.127 138.997 150.225 134.374 148.449C131.588 147.378 131.342 140.994 131.534 138.036C131.949 131.666 135.105 130.313 135.005 124.468C134.978 122.921 134.884 117.447 131.219 115.002Z" fill="#1A1D2F"/>
<path d="M74.8686 223.108C74.3194 226.553 75.6515 229.629 77.8435 229.978C80.0356 230.328 82.2571 227.818 82.806 224.372C83.0442 222.998 82.9499 221.587 82.5312 220.258L84.6738 205.632L77.7902 204.772L76.4088 219.282C75.5973 220.416 75.0691 221.728 74.8686 223.108Z" fill="#FFB6B6"/>
<path d="M99.7807 141.404C99.7807 141.404 93.9297 139.063 91.5893 143.355C89.2489 147.646 79.8874 182.369 79.8874 182.369L75.9867 216.311L84.1781 216.701L90.8092 185.49L105.242 158.57L99.7807 141.404Z" fill="#1A1D2F"/>
<path d="M472 348.32C472 348.695 471.696 349 471.32 349H0V347.64H471.32C471.696 347.64 472 347.944 472 348.32Z" fill="#595959"/>
</g>
<defs>
<clipPath id="clip0_550_3184">
<rect width="472" height="349" fill="white"/>
</clipPath>
</defs>
</svg>
