<svg width="20" height="20" viewBox="0 0 20 20" fill="none" xmlns="http://www.w3.org/2000/svg">
<g id="heroicons-mini/beaker">
<path id="Vector (Stroke)" fill-rule="evenodd" clip-rule="evenodd" d="M8.5 3.52795V8.17157C8.5 8.90092 8.21027 9.60039 7.69454 10.1161L6.47813 11.3325C7.68605 11.2911 8.89516 11.5003 10.0275 11.9532L10.5296 12.1541C11.8561 12.6847 13.3098 12.8115 14.708 12.5187L12.3055 10.1161C11.7897 9.60039 11.5 8.90092 11.5 8.17157V3.52795C11.0023 3.50937 10.5023 3.5 10 3.5C9.49772 3.5 8.99767 3.50937 8.5 3.52795ZM13 3.61218C13.0635 3.61695 13.1269 3.62186 13.1903 3.62693C13.6032 3.65992 13.9646 3.35194 13.9976 2.93905C14.0306 2.52615 13.7226 2.16468 13.3097 2.13169C12.9714 2.10466 12.6319 2.08173 12.2913 2.06296C11.5327 2.02117 10.7688 2 10 2C9.23119 2 8.46725 2.02117 7.70874 2.06296C7.36813 2.08173 7.02863 2.10466 6.69026 2.13169C6.27737 2.16468 5.96939 2.52615 6.00238 2.93905C6.03537 3.35194 6.39684 3.65992 6.80974 3.62693C6.87311 3.62186 6.93654 3.61695 7 3.61218V8.17157C7 8.50309 6.8683 8.82104 6.63388 9.05546L2.60035 13.089C1.10386 14.5855 1.78335 17.2391 4.00337 17.5645C5.96111 17.8515 7.96344 18 10 18C12.0366 18 14.0389 17.8515 15.9966 17.5645C18.2167 17.2391 18.8961 14.5855 17.3997 13.089L13.3661 9.05546C13.1317 8.82104 13 8.50309 13 8.17157V3.61218Z" fill="#830FDE"/>
</g>
</svg>
