<svg width="31" height="32" viewBox="0 0 31 32" fill="none" xmlns="http://www.w3.org/2000/svg">
<g clip-path="url(#clip0_448_1682)">
<path d="M30.2515 15.9246C30.2515 23.9332 23.5945 30.433 15.3921 30.433C7.18967 30.433 0.532608 23.9332 0.532608 15.9246C0.532608 7.91592 7.18967 1.41614 15.3921 1.41614C23.5945 1.41614 30.2515 7.91592 30.2515 15.9246Z" fill="#FCFCFC"/>
<path d="M15.5001 0.5C6.93858 0.5 3.05176e-05 7.43945 3.05176e-05 16C3.05176e-05 24.5609 6.93854 31.5 15.5001 31.5C24.0616 31.5 31.0001 24.5609 31.0001 16C31 7.43945 24.0615 0.5 15.5001 0.5ZM15.5001 5.66668C21.2077 5.66668 25.8334 10.2936 25.8334 16C25.8334 21.7064 21.2077 26.3334 15.5001 26.3334C9.7924 26.3334 5.16671 21.7064 5.16671 16C5.16671 10.2936 9.79236 5.66668 15.5001 5.66668ZM15.5001 10.8333C12.6462 10.8333 10.3334 13.1468 10.3334 16C10.3334 18.8535 12.6463 21.1666 15.5001 21.1666C18.3539 21.1666 20.6667 18.8535 20.6667 16C20.6667 13.1468 18.3539 10.8333 15.5001 10.8333ZM28.2647 27.8529C27.7694 27.8529 27.353 28.2425 27.353 28.7647C27.353 29.2926 27.7693 29.6765 28.2647 29.6765C28.7541 29.6765 29.1765 29.2926 29.1765 28.7647C29.1765 28.2426 28.7541 27.8529 28.2647 27.8529ZM28.2647 28.0049C28.672 28.0049 28.9942 28.3325 28.9942 28.7647C28.9942 29.2036 28.672 29.5245 28.2647 29.5245C27.8514 29.5245 27.5353 29.2036 27.5353 28.7647C27.5354 28.3325 27.8514 28.0049 28.2647 28.0049ZM27.9153 28.2404V29.289H28.0748V28.8331H28.2572L28.5307 29.289H28.7055L28.4091 28.8255C28.558 28.8049 28.6827 28.7249 28.6827 28.5368C28.6827 28.3283 28.5611 28.2404 28.318 28.2404H27.9153ZM28.0748 28.3772H28.2875C28.397 28.3772 28.5155 28.3991 28.5155 28.5292C28.5155 28.6906 28.3985 28.6963 28.2648 28.6963H28.0748V28.3772H28.0748Z" fill="#830FDE"/>
</g>
<defs>
<clipPath id="clip0_448_1682">
<rect width="31" height="31" fill="white" transform="translate(0 0.5)"/>
</clipPath>
</defs>
</svg>
